<?xml version="1.0" encoding="utf-8"?>
<!-- Generator: Adobe Illustrator 15.1.0, SVG Export Plug-In . SVG Version: 6.00 Build 0)  -->
<!DOCTYPE svg PUBLIC "-//W3C//DTD SVG 1.1//EN" "http://www.w3.org/Graphics/SVG/1.1/DTD/svg11.dtd">
<svg version="1.1" id="Layer_1" xmlns="http://www.w3.org/2000/svg" xmlns:xlink="http://www.w3.org/1999/xlink" x="0px" y="0px"
	 width="480px" height="93.481px" viewBox="0 0 480 93.481" enable-background="new 0 0 480 93.481" xml:space="preserve">
<g>
	<g>
		<path fill-rule="evenodd" clip-rule="evenodd" fill="#F9BF3B" d="M3.271,29.337C8.323,16.125,19.131,5.761,32.628,1.311
			c2.033-0.67,4.048-0.445,5.884,0.657c1.834,1.103,2.979,2.776,3.341,4.886c0.265,1.543,0.404,3.129,0.404,4.748
			c0,15.388-12.474,27.86-27.861,27.86c-2.067,0-4.081-0.225-6.02-0.652c-2.09-0.46-3.708-1.683-4.724-3.567
			C2.638,33.36,2.506,31.337,3.271,29.337"/>
		<path fill-rule="evenodd" clip-rule="evenodd" fill="#FF5959" d="M24.957,87.818C12.049,80.827,2.763,68.002,0.63,52.882
			c-0.291-2.063,0.248-3.951,1.585-5.551c1.337-1.598,3.099-2.463,5.181-2.541c0.362-0.014,0.725-0.021,1.089-0.021
			c15.788,0,28.585,12.799,28.585,28.586c0,3.874-0.771,7.568-2.168,10.937c-0.799,1.927-2.224,3.278-4.189,3.975
			C28.749,88.963,26.79,88.812,24.957,87.818"/>
		<path fill-rule="evenodd" clip-rule="evenodd" fill="#1F4287" d="M81.171,79.347c-8.3,8.45-19.748,13.796-32.447,14.134
			c-3.849,0.103-7.084-2.891-7.283-6.734c-0.02-0.401-0.03-0.805-0.03-1.209c0-12.79,10.368-23.159,23.159-23.159
			c6.529,0,12.427,2.703,16.637,7.05C83.884,72.193,83.869,76.601,81.171,79.347"/>
		<path fill-rule="evenodd" clip-rule="evenodd" fill="#4F9DA6" d="M61.935,1.206c19.022,6.119,32.787,23.957,32.787,45.013
			c0,1.951-0.118,3.874-0.349,5.762c-0.365,2.986-2.433,5.319-5.356,6.038c-2.616,0.643-5.35,0.984-8.166,0.984
			c-18.85,0-34.132-15.283-34.132-34.134c0-8.08,2.809-15.503,7.502-21.349C56.1,1.181,59.077,0.287,61.935,1.206"/>
	</g>
	<g>
		<path fill="#071E3D" d="M460.203,57.595v-6.814c0-0.377,0.307-0.685,0.685-0.685h15.047c0.377,0,0.684-0.308,0.684-0.683v-4.998
			c0-0.377-0.307-0.685-0.684-0.685h-15.047c-0.378,0-0.685-0.308-0.685-0.684v-6.309c0-0.376,0.307-0.685,0.685-0.685h17.219
			c0.377,0,0.686-0.307,0.686-0.684v-5.197c0-0.377-0.309-0.684-0.686-0.684h-25.353c-0.377,0-0.684,0.307-0.684,0.684v33.99
			c0,0.377,0.307,0.683,0.684,0.683h26.01c0.377,0,0.684-0.306,0.684-0.683v-5.198c0-0.377-0.307-0.685-0.684-0.685h-17.876
			C460.51,58.28,460.203,57.972,460.203,57.595 M446.514,35.37v-5.197c0-0.377-0.308-0.684-0.685-0.684h-25.351
			c-0.378,0-0.684,0.307-0.684,0.684v33.99c0,0.377,0.306,0.683,0.684,0.683h6.813c0.377,0,0.685-0.306,0.685-0.683V52.651
			c0-0.377,0.308-0.687,0.684-0.687h14.998c0.377,0,0.685-0.306,0.685-0.683v-5.199c0-0.377-0.308-0.684-0.685-0.684H428.66
			c-0.376,0-0.684-0.308-0.684-0.684v-7.977c0-0.376,0.308-0.685,0.684-0.685h17.169C446.206,36.053,446.514,35.747,446.514,35.37z
			 M403.909,64.845h6.814c0.377,0,0.686-0.306,0.686-0.683v-33.99c0-0.377-0.309-0.684-0.686-0.684h-6.814
			c-0.377,0-0.683,0.307-0.683,0.684v33.99C403.227,64.54,403.532,64.845,403.909,64.845z M373.402,64.845h24.543
			c0.377,0,0.684-0.306,0.684-0.683v-5.3c0-0.378-0.307-0.684-0.684-0.684h-16.361c-0.377,0-0.685-0.308-0.685-0.685V30.172
			c0-0.377-0.306-0.684-0.684-0.684h-6.813c-0.377,0-0.686,0.307-0.686,0.684v33.99C372.717,64.54,373.025,64.845,373.402,64.845z
			 M352.842,64.845h2.37c0.377,0,0.685-0.306,0.685-0.683V33.405c0-0.377,0.308-0.685,0.684-0.685h11.058
			c0.377,0,0.684-0.307,0.684-0.684v-1.864c0-0.377-0.307-0.684-0.684-0.684h-27.221c-0.377,0-0.685,0.307-0.685,0.684v1.864
			c0,0.377,0.308,0.684,0.685,0.684h11.058c0.377,0,0.684,0.308,0.684,0.685v30.758C352.158,64.54,352.465,64.845,352.842,64.845z
			 M330.086,30.172v26.044c0,0.297-0.18,0.55-0.46,0.646c-0.278,0.098-0.576,0.011-0.761-0.221L307.51,29.747
			c-0.134-0.169-0.32-0.258-0.534-0.258h-2.067c-0.377,0-0.685,0.307-0.685,0.684v33.99c0,0.377,0.308,0.683,0.685,0.683h2.369
			c0.375,0,0.684-0.306,0.684-0.683V38.121c0-0.296,0.179-0.549,0.459-0.646c0.281-0.097,0.577-0.011,0.762,0.222l21.305,26.891
			c0.134,0.17,0.32,0.259,0.535,0.259h2.067c0.376,0,0.685-0.306,0.685-0.683v-33.99c0-0.377-0.309-0.684-0.685-0.684h-2.319
			C330.392,29.488,330.086,29.795,330.086,30.172z M274.169,60.929V49.165c0-0.378,0.307-0.685,0.684-0.685h16.917
			c0.378,0,0.684-0.308,0.684-0.685v-1.814c0-0.376-0.306-0.684-0.684-0.684h-16.917c-0.377,0-0.684-0.308-0.684-0.684V33.405
			c0-0.377,0.307-0.685,0.684-0.685h19.14c0.376,0,0.685-0.307,0.685-0.684v-1.864c0-0.377-0.309-0.684-0.685-0.684h-22.877
			c-0.376,0-0.685,0.307-0.685,0.684v33.99c0,0.377,0.309,0.683,0.685,0.683h23.635c0.378,0,0.685-0.306,0.685-0.683v-1.866
			c0-0.375-0.307-0.684-0.685-0.684h-19.897C274.476,61.613,274.169,61.306,274.169,60.929z M248.992,64.845h2.368
			c0.378,0,0.684-0.306,0.684-0.683V33.405c0-0.377,0.309-0.685,0.687-0.685h11.057c0.375,0,0.685-0.307,0.685-0.684v-1.864
			c0-0.377-0.31-0.684-0.685-0.684h-27.222c-0.376,0-0.684,0.307-0.684,0.684v1.864c0,0.377,0.308,0.684,0.684,0.684h11.058
			c0.377,0,0.684,0.308,0.684,0.685v30.758C248.307,64.54,248.615,64.845,248.992,64.845z M226.233,30.172v26.044
			c0,0.297-0.18,0.55-0.459,0.646c-0.279,0.098-0.577,0.011-0.76-0.221l-21.355-26.896c-0.134-0.169-0.32-0.258-0.536-0.258h-2.067
			c-0.376,0-0.684,0.307-0.684,0.684v33.99c0,0.377,0.308,0.683,0.684,0.683h2.37c0.377,0,0.685-0.306,0.685-0.683V38.121
			c0-0.296,0.179-0.549,0.459-0.646c0.279-0.097,0.578-0.011,0.761,0.222l21.305,26.891c0.134,0.17,0.319,0.259,0.535,0.259h2.066
			c0.376,0,0.684-0.306,0.684-0.683v-33.99c0-0.377-0.308-0.684-0.684-0.684h-2.319C226.541,29.488,226.233,29.795,226.233,30.172z
			 M173.448,61.815c-8.536,0-14.9-6.212-14.9-14.648c0-8.435,6.364-14.648,14.9-14.648c8.486,0,14.8,6.213,14.8,14.648
			C188.249,55.603,181.934,61.815,173.448,61.815z M173.448,65.149c10.607,0,18.538-7.627,18.538-17.982
			c0-10.355-7.931-17.982-18.538-17.982c-10.708,0-18.587,7.678-18.587,17.982C154.861,57.471,162.741,65.149,173.448,65.149z
			 M137.788,65.149c4.947,0,9.391-1.597,12.507-4.708c0.134-0.131,0.202-0.295,0.202-0.483c0-0.188-0.067-0.351-0.2-0.483
			l-1.42-1.421c-0.262-0.261-0.686-0.268-0.955-0.013c-2.79,2.645-6.161,3.774-9.982,3.774c-8.537,0-14.952-6.264-14.952-14.648
			s6.416-14.648,14.952-14.648c3.821,0,7.192,1.13,9.982,3.731c0.27,0.251,0.69,0.243,0.951-0.016l1.423-1.424
			c0.134-0.133,0.201-0.295,0.201-0.484c0-0.189-0.067-0.351-0.202-0.484c-3.116-3.104-7.558-4.657-12.457-4.657
			c-10.657,0-18.537,7.627-18.537,17.982C119.301,57.522,127.181,65.149,137.788,65.149z"/>
	</g>
</g>
</svg>
